<svg xmlns="http://www.w3.org/2000/svg" viewBox="0 0 24 24">
  <path d="M12 8.3 C10 8.3 8.3 10 8.3 12 C8.3 14 10 15.7 12 15.7 C14 15.7 15.7 14 15.7 12 C15.7 10 14 8.3 12 8.3 Z M10.5 3.2 H13.5 L14 5.5 C14.6 5.7 15.1 5.9 15.6 6.3 L17.8 5.4 L18.9 6.5 L18 8.7 C18.3 9.2 18.6 9.7 18.8 10.3 L21 11.2 V12.8 L18.8 13.7 C18.6 14.3 18.3 14.8 18 15.3 L18.9 17.5 L17.8 18.6 L15.6 17.7 C15.1 18.1 14.6 18.3 14 18.5 L13.5 20.8 H10.5 L10 18.5 C9.4 18.3 8.9 18.1 8.4 17.7 L6.2 18.6 L5.1 17.5 L6 15.3 C5.7 14.8 5.4 14.3 5.2 13.7 L3 12.8 V11.2 L5.2 10.3 C5.4 9.7 5.7 9.2 6 8.7 L5.1 6.5 L6.2 5.4 L8.4 6.3 C8.9 5.9 9.4 5.7 10 5.5 Z" fill="none" stroke="#f5f7fb" stroke-width="1.9" stroke-linecap="round" stroke-linejoin="round"/>
</svg>
